<svg xmlns="http://www.w3.org/2000/svg" viewBox="0 0 600 600"><defs><style>.cls-1{fill:#1d00bf;}.cls-2{opacity:0.7;}.cls-3,.cls-7{fill:#fff;}.cls-4{fill:none;}.cls-5{fill:#424242;}.cls-6{fill:#757575;stroke:#757575;}.cls-6,.cls-7{stroke-miterlimit:10;}.cls-7{stroke:#fff;}</style></defs><title>logo_trasparent</title><g id="Layer_6" data-name="Layer 6"><rect class="cls-1" width="600" height="600"/></g><g id="Background"><g class="cls-2"><path class="cls-3" d="M300,550.5A250.5,250.5,0,0,1,122.9,122.9,250.5,250.5,0,1,1,477.1,477.1,248.9,248.9,0,0,1,300,550.5Z"/><path class="cls-3" d="M300,50a250.1,250.1,0,0,1,97.3,480.4A250.1,250.1,0,0,1,202.7,69.6,248.4,248.4,0,0,1,300,50m0-1C161.4,49,49,161.4,49,300S161.4,551,300,551,551,438.6,551,300,438.6,49,300,49Z"/></g></g><g id="Border"><path class="cls-4" d="M300,15C142.6,15,15,142.6,15,300A283.7,283.7,0,0,0,49.3,435.6l3-7.2c20.7-60.6,26.8-115.2,27.2-118.9,2.1-19.8,2.6-35.6,10.8-56.7s18.8-33.9,27-43.6c30.8-36.8,65.7-49.9,81-54.5,11.1-3.3,30.1-8.8,54-4.4,6.1,1.1,5.5,1.6,16.2,4.4s41,10.6,68.4,8.7c20-1.4,34.1-7.4,43.2-10.9,26.4-10.3,68.3-21.9,136.4-27.5h.1c.5.6-21.5,21.2-43.3,40.1a1061.8,1061.8,0,0,1-86.7,67.2,143.8,143.8,0,0,0-35,37.8A245.7,245.7,0,0,0,336,297.5c-7.1,14.9-3.9,12.9-19.8,52.3a205.1,205.1,0,0,0-10.8,39.2c-1.6,9.5-2,15.6,0,21.8,2.9,9,26.2,31.9,39.6,52.3,21.7,33,38.8,73,49,99.5l2.3,5.6C506.3,528.8,585,423.6,585,300,585,142.6,457.4,15,300,15Z"/><path class="cls-5" d="M300,599.5a301.7,301.7,0,0,1-53.7-4.8l-9.4-1.8c-5.4-1.2-10.8-2.5-16.1-3.9A299.5,299.5,0,0,1,.5,300,299.5,299.5,0,0,1,511.8,88.2a299.5,299.5,0,0,1-155.5,506l-12,2c-7.1,1-14.3,1.9-21.5,2.4S307.6,599.5,300,599.5ZM515.6,125.6c-3.4,3.9-22.3,21.6-42.7,39.1a1065.6,1065.6,0,0,1-86.6,67.1,144.4,144.4,0,0,0-35.2,37.9,248.5,248.5,0,0,0-15.6,27.6,111.2,111.2,0,0,0-6.2,15.8c-2,6.2-5.1,15.5-13.6,36.6A206.6,206.6,0,0,0,304.9,389c-1.6,9.3-2.1,15.6,0,22,1.6,4.9,8.9,13.6,17.4,23.7s16,19.2,22.3,28.7c21.5,32.7,38.5,72.1,49,99.4l2.5,6,.5-.2C509.5,528.2,585.5,420.2,585.5,300,585.5,142.6,457.4,14.5,300,14.5S14.5,142.6,14.5,300A285.9,285.9,0,0,0,48.8,435.8l.5.9.4-.9,3-7.2c21-61.5,27-116.7,27.3-119s.6-5.7.9-8.5c1.6-16.2,2.9-30.2,9.9-48.1,8.3-21.2,19.5-34.6,26.9-43.5,29.4-35.1,63.2-49.1,80.8-54.3,7.5-2.2,20-6,35.8-6a99,99,0,0,1,17.9,1.6,47.7,47.7,0,0,1,6.8,1.7c1.9.6,4.4,1.4,9.4,2.7,10.5,2.7,35,9,59.6,9,3.1,0,6.1-.1,9-.3,18.8-1.3,32.5-6.7,41.6-10.2l1.8-.7C415.1,139.4,460.6,130.2,515.6,125.6Z"/><path class="cls-5" d="M300,1A299,299,0,0,1,543.5,473.5,298.6,298.6,0,0,1,356.2,593.7l-12,2c-7.1,1-14.3,1.9-21.4,2.4s-15.2.9-22.8.9a301.2,301.2,0,0,1-53.6-4.8l-9.4-1.8c-5.4-1.1-10.8-2.5-16-3.9A298.9,298.9,0,0,1,88.6,88.6,298.1,298.1,0,0,1,300,1M49.4,437.9l.8-1.9,3-7.2h0c21-61.5,27-116.8,27.3-119.1s.6-5.7.9-8.5c1.6-16.2,2.9-30.1,9.9-47.9,8.3-21.2,19.4-34.5,26.8-43.3,29.3-35,63-49,80.5-54.2,7.5-2.2,20-6,35.7-6a98.6,98.6,0,0,1,17.8,1.6,47.3,47.3,0,0,1,6.7,1.7c1.9.6,4.5,1.4,9.4,2.7,10.5,2.7,35.1,9,59.7,9,3.1,0,6.1-.1,9-.3,18.9-1.3,32.6-6.7,41.7-10.3l1.8-.7c34.5-13.5,79.5-22.7,133.9-27.3-5,5.2-22.7,21.7-41.7,38.1A1065.4,1065.4,0,0,1,386,231.5a144.8,144.8,0,0,0-35.3,38,249,249,0,0,0-15.7,27.7,111.7,111.7,0,0,0-6.3,15.9c-2,6.2-5.1,15.5-13.6,36.5a207.6,207.6,0,0,0-10.9,39.4c-1.6,9.4-2.1,15.7,0,22.3,1.6,4.9,8.9,13.7,17.4,23.9s16,19.1,22.3,28.7c21.5,32.6,38.4,72,48.9,99.3l1.4,3.4.9,2.1.4.9.9-.3C509.9,528.6,586,420.4,586,300,586,142.3,457.7,14,300,14S14,142.3,14,300A286.4,286.4,0,0,0,48.4,436.1l1,1.8M300,0C134.3,0,0,134.3,0,300A300,300,0,0,0,220.7,589.4q8,2.2,16.1,3.9l9.4,1.8A301.2,301.2,0,0,0,300,600q11.5,0,22.9-.9t21.5-2.4l12-2A297.8,297.8,0,0,0,402,582.2C517.5,540.4,600,429.9,600,300,600,134.3,465.7,0,300,0ZM49.3,435.6A283.7,283.7,0,0,1,15,300C15,142.6,142.6,15,300,15S585,142.6,585,300c0,123.6-78.7,228.8-188.7,268.3l-2.3-5.6c-10.2-26.5-27.3-66.5-49-99.5-13.4-20.4-36.7-43.3-39.6-52.3-2-6.2-1.6-12.3,0-21.8a205.1,205.1,0,0,1,10.8-39.2c15.9-39.4,12.7-37.4,19.8-52.3A245.7,245.7,0,0,1,351.6,270a143.8,143.8,0,0,1,35-37.8,1061.8,1061.8,0,0,0,86.7-67.2c21.9-18.8,43.8-39.5,43.3-40.1h-.1c-68.1,5.6-110.1,17.3-136.4,27.5-9.1,3.5-23.2,9.5-43.2,10.9-3,.2-6,.3-8.9.3-24.5,0-48.7-6.3-59.5-9s-10.1-3.2-16.2-4.4a99.1,99.1,0,0,0-18-1.6c-15.5,0-27.9,3.6-36,6-15.3,4.6-50.2,17.7-81,54.5-8.2,9.7-18.8,22.7-27,43.6s-8.7,36.9-10.8,56.7c-.4,3.7-6.6,58.3-27.2,118.9l-3,7.2Z"/></g><g id="Eye"><path class="cls-6" d="M266.2,198.8a25.5,25.5,0,0,1-19,8.6c-13.2,0-24.1-10.2-25.8-23.4-17.8,8.2-30.5,27.3-25.8,36.5s27.5,8.9,43.1,2.4C250.1,218.1,262.5,208,266.2,198.8Z"/><path class="cls-7" d="M247.1,207.4a25.5,25.5,0,0,0,19-8.6,13.4,13.4,0,0,0,1.1-5.7,9.3,9.3,0,0,0-.5-2.5,10.1,10.1,0,0,0-2.1-3.4,17.4,17.4,0,0,1-34.5-2.7,17,17,0,0,1,.4-3.5l-2.9.7a44.2,44.2,0,0,0-5.8,2.1l-.6.3C223.1,197.2,233.9,207.4,247.1,207.4Z"/></g><g id="Chest"><path class="cls-7" d="M337,502.3c-3.7-6.6-3.5-5.5-15.4-23.9-17.1-26.4-20.1-33-29.8-42.2-7.9-7.5-12.5-11.8-19.6-12.5-12.8-1.4-16.7,10.3-29.8,13.7-23.9,6.2-41.6-24.6-53.5-17.1-7.2,4.5-2.2,16.6-6.2,42.2-4.8,30.6-16.5,34-24.7,76.4-.5,2.7-1,5.2-1.3,7.5a283.2,283.2,0,0,0,103.3,35.9h.7l12.5,1.5,3.4.3,2.7.2,5.9.4h1.4l5.3.2H300a285.4,285.4,0,0,0,67.6-8.1c-6.2-15.3-7.2-19.3-14.2-37S342.7,512.6,337,502.3Z"/></g><g id="Beak"><path class="cls-7" d="M366,230.1s21.1-15,62.8-44.4c31.1-21.9,53.9-36.9,65-45.5l6.3-4.7c4.9-3.6-54.5,14-88,26L307.2,199a95.3,95.3,0,0,1-14.4,24.2c-32.6,39.1-86.5,30.2-86.4,32.9s17.8,3.7,68.4,2.2c27.6-.8,34,.7,45-2.2C335.8,251.8,345.3,244.9,366,230.1Z"/></g></svg>