<svg xmlns="http://www.w3.org/2000/svg" viewBox="0 0 600 600"><defs><style>.cls-1{fill:#fff;}.cls-2{fill:none;}.cls-3{fill:#424242;}.cls-4{fill:#757575;}</style></defs><title>logo</title><g id="Background"><circle class="cls-1" cx="300" cy="300" r="285"/></g><g id="Border"><path class="cls-2" d="M300,15C142.6,15,15,142.6,15,300A283.68,283.68,0,0,0,49.27,435.59q1.55-3.62,3-7.16c20.66-60.57,26.84-115.24,27.22-118.9,2.11-19.83,2.58-35.65,10.8-56.69,8.15-20.88,18.83-33.86,27-43.6,30.81-36.79,65.68-49.93,81-54.51,11.09-3.31,30.12-8.76,54-4.36,6.09,1.12,5.48,1.59,16.2,4.36,12,3.1,41,10.59,68.4,8.72,20-1.37,34.14-7.36,43.2-10.9,26.36-10.29,68.28-21.91,136.42-27.55.06,0,.1,0,.12,0,.51.58-21.45,21.25-43.33,40.08a1061.76,1061.76,0,0,1-86.67,67.17,143.85,143.85,0,0,0-35,37.76A245.74,245.74,0,0,0,336,297.55c-7.11,14.94-3.94,12.91-19.8,52.33a205.15,205.15,0,0,0-10.8,39.24c-1.65,9.49-2,15.59,0,21.8,2.92,9,26.2,31.95,39.6,52.33,21.73,33,38.83,73,49,99.5.76,1.85,1.53,3.7,2.29,5.56C506.29,528.81,585,423.61,585,300,585,142.6,457.4,15,300,15Z"/><path class="cls-1" d="M337,502.28c-3.65-6.64-3.52-5.51-15.44-23.94-17.07-26.4-20.1-33-29.85-42.19-7.9-7.47-12.46-11.78-19.56-12.54-12.79-1.37-16.7,10.26-29.85,13.68-23.91,6.22-41.56-24.63-53.52-17.1-7.21,4.54-2.15,16.6-6.18,42.19-4.82,30.65-16.53,34-24.7,76.39-.52,2.69-1,5.18-1.35,7.52a283.16,283.16,0,0,0,103.34,35.89l.67.09q6.2.86,12.48,1.45l3.4.3,2.67.21q3,.22,5.92.37l1.37.06q2.62.12,5.26.2l1.84,0c2.16,0,4.33.08,6.5.08a285.44,285.44,0,0,0,67.61-8.09c-6.22-15.29-7.19-19.31-14.16-37C346.34,521.84,342.66,512.6,337,502.28Z"/><path class="cls-3" d="M300,0C134.31,0,0,134.31,0,300A300,300,0,0,0,220.71,589.39q8,2.18,16.1,3.92c3.12.67,6.26,1.27,9.41,1.84A301.19,301.19,0,0,0,300,600q11.54,0,22.87-.87,10.87-.82,21.51-2.4,6.06-.9,12-2A297.8,297.8,0,0,0,402,582.17C517.48,540.42,600,429.86,600,300,600,134.31,465.69,0,300,0Zm0,585c-2.17,0-4.34,0-6.5-.08l-1.84,0q-2.64-.08-5.26-.2l-1.37-.06q-3-.15-5.92-.37l-2.67-.21-3.4-.3q-6.28-.59-12.48-1.45l-.67-.09a283.16,283.16,0,0,1-103.34-35.89c.38-2.33.83-4.82,1.35-7.52,8.18-42.43,19.88-45.74,24.7-76.39,4-25.59-1-37.65,6.18-42.19,12-7.52,29.61,23.32,53.52,17.1,13.15-3.42,17.06-15,29.85-13.68,7.1.76,11.65,5.07,19.56,12.54,9.74,9.22,12.78,15.79,29.85,42.19,11.92,18.43,11.78,17.31,15.44,23.94,5.68,10.32,9.36,19.56,16.47,37.62,7,17.69,7.94,21.71,14.16,37A285.44,285.44,0,0,1,300,585Zm96.27-16.7c-.76-1.85-1.53-3.71-2.29-5.56-10.17-26.52-27.28-66.46-49-99.5-13.4-20.38-36.68-43.34-39.6-52.33-2-6.21-1.65-12.31,0-21.8a205.15,205.15,0,0,1,10.8-39.24c15.86-39.42,12.69-37.39,19.8-52.33A245.74,245.74,0,0,1,351.57,270a143.85,143.85,0,0,1,35-37.76,1061.76,1061.76,0,0,0,86.67-67.17c21.88-18.83,43.84-39.5,43.33-40.08,0,0-.06,0-.12,0-68.14,5.64-110.06,17.26-136.42,27.55-9.06,3.54-23.17,9.53-43.2,10.9-27.36,1.87-56.38-5.62-68.4-8.72-10.72-2.77-10.11-3.24-16.2-4.36-23.88-4.4-42.91,1-54,4.36-15.32,4.58-50.18,17.72-81,54.51-8.17,9.75-18.85,22.73-27,43.6-8.22,21-8.69,36.86-10.8,56.69-.39,3.65-6.56,58.33-27.22,118.9q-1.43,3.53-3,7.16A283.68,283.68,0,0,1,15,300C15,142.6,142.6,15,300,15S585,142.6,585,300C585,423.61,506.29,528.81,396.27,568.3Z"/></g><g id="Eye"><path class="cls-4" d="M266.16,198.76a25.49,25.49,0,0,1-19,8.62c-13.2,0-24.07-10.18-25.78-23.38-17.75,8.2-30.46,27.3-25.82,36.49s27.47,8.87,43.07,2.36C250.1,218.06,262.49,208,266.16,198.76Z"/><path class="cls-1" d="M247.13,207.38a25.49,25.49,0,0,0,19-8.62,13.43,13.43,0,0,0,1.08-5.69,9.3,9.3,0,0,0-.48-2.54,10.05,10.05,0,0,0-2.07-3.42,17.35,17.35,0,0,1-34.47-2.66,17,17,0,0,1,.38-3.54q-1.47.32-2.88.72a44.18,44.18,0,0,0-5.82,2.13l-.56.26C223.07,197.2,233.94,207.38,247.13,207.38Z"/></g><g id="Beak"><path class="cls-1" d="M366,230.08s21.08-15,62.83-44.42c31.06-21.85,53.87-36.91,65-45.5,2.08-1.6,4.19-3.16,6.31-4.69,4.92-3.55-54.47,14-88,26-34.91,12.46-70.09,25-105,37.52a95.29,95.29,0,0,1-14.4,24.15c-32.56,39.14-86.47,30.23-86.4,32.94,0,1.55,17.75,3.67,68.4,2.2,27.64-.81,34,.73,45-2.2C335.76,251.82,345.28,244.88,366,230.08Z"/></g></svg>