<svg xmlns="http://www.w3.org/2000/svg" viewBox="0 0 600 600"><defs><style>.cls-1,.cls-3{fill:#fff;}.cls-1{opacity:0.7;}.cls-2{fill:#757575;}.cls-4{fill:#424242;}.cls-5{fill:none;}</style></defs><title>logo</title><g id="Background"><circle class="cls-1" cx="300" cy="300" r="300"/></g><g id="Penguin"><path class="cls-2" d="M247.13,207.38c-14,0-25.37-11.44-26-25.79-19.65,9.2-33.83,31.39-28.72,42s29.92,10.14,46.9,2.7c15.19-6.65,31.82-22.21,31.19-34A26,26,0,0,1,247.13,207.38Z"/><path class="cls-3" d="M247.13,207.38a26,26,0,0,0,23.37-15.13,11.1,11.1,0,0,0-.52-2.91c-3.74-11.31-26.14-15.12-42.51-10.19a46.67,46.67,0,0,0-6.33,2.44C221.76,195.94,233.14,207.38,247.13,207.38Z"/></g><g id="Frame"><path class="cls-4" d="M300,0C134.31,0,0,134.31,0,300S134.31,600,300,600,600,465.69,600,300,465.69,0,300,0ZM195.53,220.49c-4.69-9.28,8.34-28.7,26.38-36.75a44.18,44.18,0,0,1,5.82-2.13q1.41-.4,2.88-.72a17,17,0,0,0-.38,3.54,17.35,17.35,0,0,0,34.47,2.66,10.05,10.05,0,0,1,2.07,3.42,9.3,9.3,0,0,1,.48,2.54c.58,10.35-14.69,24-28.64,29.79C223,229.37,200.23,229.81,195.53,220.49Zm79.26,37.76c-50.64,1.48-68.36-.64-68.4-2.2-.07-2.7,53.84,6.2,86.4-32.94A95.29,95.29,0,0,0,307.18,199c34.9-12.49,70.08-25.07,105-37.52,33.55-12,92.93-29.52,88-26-2.13,1.53-4.24,3.09-6.31,4.69-11.13,8.59-33.94,23.65-65,45.5C387.11,215,366,230.08,366,230.08c-20.75,14.8-30.27,21.73-46.25,26C308.77,259,302.42,257.45,274.78,258.25ZM379.67,573.61l.44-.13Zm16.4-5.36c-9.82-26.25-27.8-69.6-51.09-105-13.4-20.38-36.68-43.34-39.6-52.33-2-6.21-1.65-12.31,0-21.8a205.15,205.15,0,0,1,10.8-39.24c15.86-39.42,12.69-37.39,19.8-52.33A245.74,245.74,0,0,1,351.57,270a143.85,143.85,0,0,1,35-37.76,1061.76,1061.76,0,0,0,86.67-67.17c21.88-18.83,43.84-39.5,43.33-40.08,0,0-.06,0-.12,0-68.14,5.64-110.06,17.26-136.42,27.55-9.06,3.54-23.17,9.53-43.2,10.9-27.36,1.87-56.38-5.62-68.4-8.72-10.72-2.77-10.11-3.24-16.2-4.36-23.88-4.4-42.91,1-54,4.36-15.32,4.58-50.18,17.72-81,54.51-8.17,9.75-18.85,22.73-27,43.6-8.22,21-8.69,36.86-10.8,56.69-.4,3.79-7,62.43-29.57,125.63A284.52,284.52,0,0,1,16,300C16,142.6,143.15,15,300,15S584,142.6,584,300A285,285,0,0,1,396.07,568.25Z"/><ellipse class="cls-5" cx="300" cy="300" rx="284" ry="285"/></g></svg>